<svg xmlns="http://www.w3.org/2000/svg" version="1.1" height="24" width="24"  viewBox="-5.0 -10.0 110.0 135.0">
 <g>
  <path d="m32 56s-0.60938 5.6602-2.9688 8.0312c-2.3594 2.3594-8.0312 2.9688-8.0312 2.9688s5.6602 0.60938 8.0312 2.9688 2.9688 8.0312 2.9688 8.0312 0.60938-5.6602 2.9688-8.0312c2.3594-2.3594 8.0312-2.9688 8.0312-2.9688s-5.6602-0.60938-8.0312-2.9688c-2.3594-2.3594-2.9688-8.0312-2.9688-8.0312z"/>
  <path d="m62.93 38.422c-4.8398-4.8398-6.0781-16.422-6.0781-16.422s-1.2383 11.59-6.0781 16.422c-4.8398 4.8398-16.422 6.0781-16.422 6.0781s11.59 1.2383 16.422 6.0781c4.8281 4.8398 6.0781 16.422 6.0781 16.422s1.2383-11.59 6.0781-16.422c4.8398-4.8398 16.422-6.0781 16.422-6.0781s-11.59-1.2383-16.422-6.0781z"/>
  <path d="m34 30.5c0 3.332-5 3.332-5 0s5-3.332 5 0"/>
 </g>
</svg>